G75*
G70*
%OFA0B0*%
%FSLAX24Y24*%
%IPPOS*%
%LPD*%
%AMOC8*
5,1,8,0,0,1.08239X$1,22.5*
%
%ADD10C,0.0020*%
%ADD11C,0.0030*%
%ADD12C,0.0080*%
%ADD13C,0.0050*%
%ADD14C,0.0040*%
D10*
X000150Y000150D02*
X006150Y000150D01*
X006150Y005150D01*
X000150Y005150D01*
X000150Y000150D01*
D11*
X000322Y000265D02*
X000260Y000327D01*
X000322Y000265D02*
X000445Y000265D01*
X000507Y000327D01*
X000507Y000388D01*
X000445Y000450D01*
X000383Y000450D01*
X000445Y000450D02*
X000507Y000512D01*
X000507Y000574D01*
X000445Y000635D01*
X000322Y000635D01*
X000260Y000574D01*
X000628Y000635D02*
X000628Y000388D01*
X000752Y000265D01*
X000875Y000388D01*
X000875Y000635D01*
X000997Y000574D02*
X001058Y000635D01*
X001182Y000635D01*
X001244Y000574D01*
X001244Y000512D01*
X001182Y000450D01*
X001244Y000388D01*
X001244Y000327D01*
X001182Y000265D01*
X001058Y000265D01*
X000997Y000327D01*
X001120Y000450D02*
X001182Y000450D01*
X001760Y000327D02*
X001822Y000265D01*
X001945Y000265D01*
X002007Y000327D01*
X002007Y000450D01*
X001883Y000450D01*
X001760Y000327D02*
X001760Y000574D01*
X001822Y000635D01*
X001945Y000635D01*
X002007Y000574D01*
X002128Y000635D02*
X002375Y000265D01*
X002375Y000635D01*
X002497Y000635D02*
X002682Y000635D01*
X002744Y000574D01*
X002744Y000327D01*
X002682Y000265D01*
X002497Y000265D01*
X002497Y000635D01*
X002128Y000635D02*
X002128Y000265D01*
X005465Y000465D02*
X005465Y000712D01*
X005465Y000588D02*
X005835Y000588D01*
X005650Y000833D02*
X005650Y001080D01*
X005465Y004265D02*
X005465Y004512D01*
X005465Y004388D02*
X005835Y004388D01*
X005650Y004633D02*
X005650Y004880D01*
X005773Y004757D02*
X005526Y004757D01*
X003080Y004727D02*
X003080Y004974D01*
X003018Y005035D01*
X002895Y005035D01*
X002833Y004974D01*
X002833Y004727D01*
X002895Y004665D01*
X003018Y004665D01*
X003080Y004727D01*
X002712Y004727D02*
X002650Y004665D01*
X002527Y004665D01*
X002465Y004727D01*
X002527Y004850D02*
X002650Y004850D01*
X002712Y004788D01*
X002712Y004727D01*
X002527Y004850D02*
X002465Y004912D01*
X002465Y004974D01*
X002527Y005035D01*
X002650Y005035D01*
X002712Y004974D01*
X002080Y004974D02*
X002018Y005035D01*
X001895Y005035D01*
X001833Y004974D01*
X001833Y004912D01*
X001895Y004850D01*
X002018Y004850D01*
X002080Y004788D01*
X002080Y004727D01*
X002018Y004665D01*
X001895Y004665D01*
X001833Y004727D01*
X001712Y004727D02*
X001650Y004665D01*
X001527Y004665D01*
X001465Y004727D01*
X001465Y004974D01*
X001527Y005035D01*
X001650Y005035D01*
X001712Y004974D01*
X001080Y005035D02*
X000833Y004788D01*
X000895Y004850D02*
X001080Y004665D01*
X000833Y004665D02*
X000833Y005035D01*
X000712Y004974D02*
X000650Y005035D01*
X000527Y005035D01*
X000465Y004974D01*
X000465Y004727D01*
X000527Y004665D01*
X000650Y004665D01*
X000712Y004727D01*
D12*
X001100Y003650D02*
X002400Y003650D01*
X002150Y001900D02*
X002152Y001920D01*
X002158Y001938D01*
X002167Y001956D01*
X002179Y001971D01*
X002194Y001983D01*
X002212Y001992D01*
X002230Y001998D01*
X002250Y002000D01*
X002270Y001998D01*
X002288Y001992D01*
X002306Y001983D01*
X002321Y001971D01*
X002333Y001956D01*
X002342Y001938D01*
X002348Y001920D01*
X002350Y001900D01*
X002348Y001880D01*
X002342Y001862D01*
X002333Y001844D01*
X002321Y001829D01*
X002306Y001817D01*
X002288Y001808D01*
X002270Y001802D01*
X002250Y001800D01*
X002230Y001802D01*
X002212Y001808D01*
X002194Y001817D01*
X002179Y001829D01*
X002167Y001844D01*
X002158Y001862D01*
X002152Y001880D01*
X002150Y001900D01*
X002400Y001650D02*
X001100Y001650D01*
D13*
X003411Y001311D02*
X003411Y004067D01*
X005616Y004067D01*
X005616Y001311D01*
X006167Y001311D01*
X006167Y004067D01*
X005616Y004067D01*
X005616Y001311D02*
X003411Y001311D01*
D14*
X003185Y002930D02*
X003261Y003007D01*
X003261Y003084D01*
X003185Y003161D01*
X002801Y003161D01*
X002801Y003237D02*
X002801Y003084D01*
X003031Y003391D02*
X003031Y003698D01*
X003261Y003621D02*
X002801Y003621D01*
X003031Y003391D01*
M02*
