G75*
G70*
%OFA0B0*%
%FSLAX24Y24*%
%IPPOS*%
%LPD*%
%AMOC8*
5,1,8,0,0,1.08239X$1,22.5*
%
%ADD10R,0.0700X0.0360*%
%ADD11R,0.0433X0.0394*%
%ADD12C,0.0740*%
%ADD13C,0.0860*%
%ADD14C,0.0100*%
%ADD15C,0.0150*%
%ADD16C,0.0320*%
%ADD17C,0.0200*%
D10*
X000650Y001900D03*
X000650Y002400D03*
X000650Y002900D03*
X000650Y003400D03*
X002850Y003400D03*
X002850Y002900D03*
X002850Y002400D03*
X002850Y001900D03*
D11*
X003815Y004500D03*
X004485Y004500D03*
D12*
X002750Y004150D03*
X001750Y004150D03*
X000750Y004150D03*
X000750Y001150D03*
X001750Y001150D03*
X002750Y001150D03*
D13*
X004750Y001981D03*
X004750Y003359D03*
D14*
X000410Y000755D02*
X000410Y000410D01*
X005890Y000410D01*
X005890Y004890D01*
X000410Y004890D01*
X000410Y004545D01*
X000455Y004591D01*
X000647Y004670D01*
X000853Y004670D01*
X001045Y004591D01*
X001191Y004445D01*
X001250Y004302D01*
X001309Y004445D01*
X001455Y004591D01*
X001647Y004670D01*
X001853Y004670D01*
X002045Y004591D01*
X002191Y004445D01*
X002250Y004302D01*
X002309Y004445D01*
X002455Y004591D01*
X002647Y004670D01*
X002853Y004670D01*
X003045Y004591D01*
X003191Y004445D01*
X003270Y004253D01*
X003270Y004047D01*
X003191Y003855D01*
X003065Y003730D01*
X003262Y003730D01*
X003337Y003655D01*
X003340Y003658D01*
X003340Y003712D01*
X003387Y003826D01*
X003474Y003913D01*
X003588Y003960D01*
X003625Y003960D01*
X003625Y004153D01*
X003537Y004153D01*
X003449Y004241D01*
X003449Y004759D01*
X003537Y004847D01*
X003805Y004847D01*
X003825Y004858D01*
X003861Y004847D01*
X004094Y004847D01*
X004150Y004791D01*
X004176Y004817D01*
X004210Y004837D01*
X004248Y004847D01*
X004436Y004847D01*
X004436Y004548D01*
X004533Y004548D01*
X004851Y004548D01*
X004851Y004717D01*
X004841Y004755D01*
X004821Y004789D01*
X004793Y004817D01*
X004759Y004837D01*
X004721Y004847D01*
X004533Y004847D01*
X004533Y004548D01*
X004533Y004452D01*
X004851Y004452D01*
X004851Y004283D01*
X004841Y004245D01*
X004821Y004211D01*
X004793Y004183D01*
X004759Y004163D01*
X004721Y004153D01*
X004533Y004153D01*
X004533Y004452D01*
X004436Y004452D01*
X004436Y004153D01*
X004248Y004153D01*
X004210Y004163D01*
X004176Y004183D01*
X004150Y004209D01*
X004094Y004153D01*
X004075Y004153D01*
X004075Y003757D01*
X003960Y003642D01*
X003960Y003588D01*
X003913Y003474D01*
X003826Y003387D01*
X003712Y003340D01*
X003658Y003340D01*
X003493Y003175D01*
X003350Y003175D01*
X003350Y003158D01*
X003342Y003150D01*
X004209Y003150D01*
X004170Y003243D01*
X004170Y003474D01*
X004258Y003687D01*
X004421Y003850D01*
X004635Y003939D01*
X004865Y003939D01*
X005079Y003850D01*
X005242Y003687D01*
X005330Y003474D01*
X005330Y003243D01*
X005242Y003030D01*
X005079Y002867D01*
X004865Y002779D01*
X004714Y002779D01*
X004693Y002758D01*
X004693Y002758D01*
X004432Y002650D01*
X003342Y002650D01*
X003342Y002650D01*
X004464Y002650D01*
X004679Y002561D01*
X004865Y002561D01*
X005079Y002472D01*
X005242Y002309D01*
X005330Y002096D01*
X005330Y001865D01*
X005242Y001652D01*
X005079Y001489D01*
X004865Y001401D01*
X004635Y001401D01*
X004421Y001489D01*
X004258Y001652D01*
X004170Y001865D01*
X004170Y002096D01*
X004192Y002150D01*
X003342Y002150D01*
X003336Y002144D01*
X003340Y002138D01*
X003350Y002100D01*
X003350Y001940D01*
X002890Y001940D01*
X002890Y001860D01*
X003350Y001860D01*
X003350Y001700D01*
X003340Y001662D01*
X003320Y001628D01*
X003292Y001600D01*
X003258Y001580D01*
X003220Y001570D01*
X003057Y001570D01*
X003089Y001547D01*
X003147Y001489D01*
X003195Y001423D01*
X003232Y001350D01*
X003257Y001272D01*
X003269Y001200D01*
X002800Y001200D01*
X002800Y001100D01*
X003269Y001100D01*
X003257Y001028D01*
X003232Y000950D01*
X003195Y000877D01*
X003147Y000811D01*
X003089Y000753D01*
X003023Y000705D01*
X002950Y000668D01*
X002872Y000643D01*
X002800Y000631D01*
X002800Y001100D01*
X002700Y001100D01*
X002700Y000631D01*
X002628Y000643D01*
X002550Y000668D01*
X002477Y000705D01*
X002411Y000753D01*
X002353Y000811D01*
X002305Y000877D01*
X002268Y000950D01*
X002250Y001006D01*
X002232Y000950D01*
X002195Y000877D01*
X002147Y000811D01*
X002089Y000753D01*
X002023Y000705D01*
X001950Y000668D01*
X001872Y000643D01*
X001800Y000631D01*
X001800Y001100D01*
X001800Y001200D01*
X002700Y001200D01*
X002700Y001100D01*
X002231Y001100D01*
X001800Y001100D01*
X001700Y001100D01*
X001700Y000631D01*
X001628Y000643D01*
X001550Y000668D01*
X001477Y000705D01*
X001411Y000753D01*
X001353Y000811D01*
X001305Y000877D01*
X001268Y000950D01*
X001251Y001002D01*
X001191Y000855D01*
X001045Y000709D01*
X000853Y000630D01*
X000647Y000630D01*
X000455Y000709D01*
X000410Y000755D01*
X000410Y000741D02*
X000424Y000741D01*
X000410Y000643D02*
X000616Y000643D01*
X000410Y000544D02*
X005890Y000544D01*
X005890Y000446D02*
X000410Y000446D01*
X000884Y000643D02*
X001630Y000643D01*
X001700Y000643D02*
X001800Y000643D01*
X001870Y000643D02*
X002630Y000643D01*
X002700Y000643D02*
X002800Y000643D01*
X002870Y000643D02*
X005890Y000643D01*
X005890Y000741D02*
X003072Y000741D01*
X003167Y000840D02*
X005890Y000840D01*
X005890Y000938D02*
X003226Y000938D01*
X003259Y001037D02*
X005890Y001037D01*
X005890Y001135D02*
X002800Y001135D01*
X002800Y001037D02*
X002700Y001037D01*
X002700Y001135D02*
X001800Y001135D01*
X001800Y001200D02*
X001700Y001200D01*
X001700Y001669D01*
X001628Y001657D01*
X001550Y001632D01*
X001477Y001595D01*
X001411Y001547D01*
X001353Y001489D01*
X001305Y001423D01*
X001268Y001350D01*
X001251Y001298D01*
X001191Y001445D01*
X001064Y001572D01*
X001150Y001658D01*
X001150Y002142D01*
X001142Y002150D01*
X001150Y002158D01*
X001150Y002175D01*
X001343Y002175D01*
X001475Y002307D01*
X002350Y003182D01*
X002350Y003158D01*
X002358Y003150D01*
X002350Y003142D01*
X002350Y002658D01*
X002358Y002650D01*
X002350Y002642D01*
X002350Y002158D01*
X002364Y002144D01*
X002360Y002138D01*
X002350Y002100D01*
X002350Y001940D01*
X002810Y001940D01*
X002810Y001860D01*
X002350Y001860D01*
X002350Y001700D01*
X002360Y001662D01*
X002380Y001628D01*
X002408Y001600D01*
X002442Y001580D01*
X002453Y001577D01*
X002411Y001547D01*
X002353Y001489D01*
X002305Y001423D01*
X002268Y001350D01*
X002250Y001294D01*
X002232Y001350D01*
X002195Y001423D01*
X002147Y001489D01*
X002089Y001547D01*
X002023Y001595D01*
X001950Y001632D01*
X001872Y001657D01*
X001800Y001669D01*
X001800Y001200D01*
X001800Y001234D02*
X001700Y001234D01*
X001700Y001332D02*
X001800Y001332D01*
X001800Y001431D02*
X001700Y001431D01*
X001700Y001529D02*
X001800Y001529D01*
X001800Y001628D02*
X001700Y001628D01*
X001542Y001628D02*
X001120Y001628D01*
X001106Y001529D02*
X001394Y001529D01*
X001311Y001431D02*
X001197Y001431D01*
X001237Y001332D02*
X001262Y001332D01*
X001700Y001037D02*
X001800Y001037D01*
X001800Y000938D02*
X001700Y000938D01*
X001700Y000840D02*
X001800Y000840D01*
X001800Y000741D02*
X001700Y000741D01*
X001428Y000741D02*
X001076Y000741D01*
X001175Y000840D02*
X001333Y000840D01*
X001274Y000938D02*
X001225Y000938D01*
X002072Y000741D02*
X002428Y000741D01*
X002333Y000840D02*
X002167Y000840D01*
X002226Y000938D02*
X002274Y000938D01*
X002700Y000938D02*
X002800Y000938D01*
X002800Y000840D02*
X002700Y000840D01*
X002700Y000741D02*
X002800Y000741D01*
X003263Y001234D02*
X005890Y001234D01*
X005890Y001332D02*
X003238Y001332D01*
X003189Y001431D02*
X004563Y001431D01*
X004381Y001529D02*
X003106Y001529D01*
X003320Y001628D02*
X004283Y001628D01*
X004228Y001726D02*
X003350Y001726D01*
X003350Y001825D02*
X004187Y001825D01*
X004170Y001923D02*
X002890Y001923D01*
X002810Y001923D02*
X001150Y001923D01*
X001150Y001825D02*
X002350Y001825D01*
X002350Y001726D02*
X001150Y001726D01*
X001150Y002022D02*
X002350Y002022D01*
X002355Y002120D02*
X001150Y002120D01*
X001387Y002219D02*
X002350Y002219D01*
X002350Y002317D02*
X001485Y002317D01*
X001584Y002416D02*
X002350Y002416D01*
X002350Y002514D02*
X001682Y002514D01*
X001781Y002613D02*
X002350Y002613D01*
X002350Y002711D02*
X001879Y002711D01*
X001978Y002810D02*
X002350Y002810D01*
X002350Y002908D02*
X002076Y002908D01*
X002175Y003007D02*
X002350Y003007D01*
X002350Y003105D02*
X002273Y003105D01*
X003130Y003795D02*
X003374Y003795D01*
X003340Y003696D02*
X003296Y003696D01*
X003206Y003893D02*
X003455Y003893D01*
X003625Y003992D02*
X003247Y003992D01*
X003270Y004090D02*
X003625Y004090D01*
X003501Y004189D02*
X003270Y004189D01*
X003256Y004287D02*
X003449Y004287D01*
X003449Y004386D02*
X003215Y004386D01*
X003151Y004484D02*
X003449Y004484D01*
X003449Y004583D02*
X003053Y004583D01*
X003449Y004681D02*
X000410Y004681D01*
X000410Y004583D02*
X000447Y004583D01*
X000410Y004780D02*
X003469Y004780D01*
X004129Y004189D02*
X004171Y004189D01*
X004075Y004090D02*
X005890Y004090D01*
X005890Y003992D02*
X004075Y003992D01*
X004075Y003893D02*
X004524Y003893D01*
X004366Y003795D02*
X004075Y003795D01*
X004014Y003696D02*
X004267Y003696D01*
X004221Y003598D02*
X003960Y003598D01*
X003923Y003499D02*
X004180Y003499D01*
X004170Y003401D02*
X003839Y003401D01*
X003620Y003302D02*
X004170Y003302D01*
X004186Y003204D02*
X003522Y003204D01*
X004580Y002711D02*
X005890Y002711D01*
X005890Y002613D02*
X004554Y002613D01*
X004940Y002810D02*
X005890Y002810D01*
X005890Y002908D02*
X005120Y002908D01*
X005218Y003007D02*
X005890Y003007D01*
X005890Y003105D02*
X005273Y003105D01*
X005314Y003204D02*
X005890Y003204D01*
X005890Y003302D02*
X005330Y003302D01*
X005330Y003401D02*
X005890Y003401D01*
X005890Y003499D02*
X005320Y003499D01*
X005279Y003598D02*
X005890Y003598D01*
X005890Y003696D02*
X005233Y003696D01*
X005134Y003795D02*
X005890Y003795D01*
X005890Y003893D02*
X004976Y003893D01*
X004799Y004189D02*
X005890Y004189D01*
X005890Y004287D02*
X004851Y004287D01*
X004851Y004386D02*
X005890Y004386D01*
X005890Y004484D02*
X004533Y004484D01*
X004533Y004386D02*
X004436Y004386D01*
X004436Y004287D02*
X004533Y004287D01*
X004533Y004189D02*
X004436Y004189D01*
X004436Y004583D02*
X004533Y004583D01*
X004533Y004681D02*
X004436Y004681D01*
X004436Y004780D02*
X004533Y004780D01*
X004827Y004780D02*
X005890Y004780D01*
X005890Y004878D02*
X000410Y004878D01*
X001053Y004583D02*
X001447Y004583D01*
X001349Y004484D02*
X001151Y004484D01*
X001215Y004386D02*
X001285Y004386D01*
X002053Y004583D02*
X002447Y004583D01*
X002349Y004484D02*
X002151Y004484D01*
X002215Y004386D02*
X002285Y004386D01*
X004851Y004583D02*
X005890Y004583D01*
X005890Y004681D02*
X004851Y004681D01*
X004978Y002514D02*
X005890Y002514D01*
X005890Y002416D02*
X005135Y002416D01*
X005234Y002317D02*
X005890Y002317D01*
X005890Y002219D02*
X005279Y002219D01*
X005320Y002120D02*
X005890Y002120D01*
X005890Y002022D02*
X005330Y002022D01*
X005330Y001923D02*
X005890Y001923D01*
X005890Y001825D02*
X005313Y001825D01*
X005272Y001726D02*
X005890Y001726D01*
X005890Y001628D02*
X005217Y001628D01*
X005119Y001529D02*
X005890Y001529D01*
X005890Y001431D02*
X004937Y001431D01*
X004170Y002022D02*
X003350Y002022D01*
X003345Y002120D02*
X004180Y002120D01*
X002380Y001628D02*
X001958Y001628D01*
X002106Y001529D02*
X002394Y001529D01*
X002311Y001431D02*
X002189Y001431D01*
X002238Y001332D02*
X002262Y001332D01*
D15*
X001250Y002400D02*
X000650Y002400D01*
X000650Y002900D02*
X001200Y002900D01*
X001750Y003450D01*
X001750Y004150D01*
X002150Y003650D02*
X002150Y003300D01*
X001250Y002400D01*
X000650Y003400D02*
X000750Y003500D01*
X000750Y004150D01*
X002150Y003650D02*
X002650Y004150D01*
X002750Y004150D01*
X002850Y003400D02*
X003400Y003400D01*
X003650Y003650D01*
X003850Y003850D01*
X003850Y004615D01*
X003815Y004500D01*
D16*
X003650Y003650D03*
D17*
X004291Y002900D02*
X004331Y002902D01*
X004371Y002907D01*
X004410Y002916D01*
X004448Y002928D01*
X004485Y002943D01*
X004520Y002961D01*
X004554Y002983D01*
X004586Y003007D01*
X004616Y003034D01*
X004643Y003064D01*
X004667Y003096D01*
X004689Y003129D01*
X004707Y003165D01*
X004722Y003202D01*
X004734Y003240D01*
X004743Y003279D01*
X004748Y003319D01*
X004750Y003359D01*
X004291Y002900D02*
X002850Y002900D01*
X002850Y002400D02*
X004331Y002400D01*
X004370Y002398D01*
X004408Y002393D01*
X004446Y002384D01*
X004482Y002372D01*
X004518Y002356D01*
X004552Y002337D01*
X004584Y002315D01*
X004613Y002291D01*
X004641Y002263D01*
X004665Y002234D01*
X004687Y002202D01*
X004706Y002168D01*
X004722Y002132D01*
X004734Y002096D01*
X004743Y002058D01*
X004748Y002020D01*
X004750Y001981D01*
M02*
